PathFileType  4	(X/Y/Z) C:\Users\antoi\Documents\MyRepositories\mobilecap\ResultsAnalysis
DataRate	CameraRate	NumFrames	NumMarkers	Units	OrigDataRate	OrigDataStartFrame	OrigNumFrames
100.0	100.0	4	51	mm	100.0	105	278
Frame#	Time	r_knee			r_shank_antsup			r_ankle			r_calc			r_5meta			r_toe			L_knee			L_shank_antsup			L_ankle			L_calc			L_5meta			L_toe			r_sh2			r_sh3			r_sh4			L_sh2			L_sh3			r_thigh1			r_thigh2			r_thigh3			r_thigh4			r_thigh5			L_thigh1			L_thigh2			L_thigh3			L_thigh4			r.ASIS			r.PSIS			L.ASIS			L.PSIS			C7			R_Shoulder			L_Shoulder			R_Sternum			L_Sternum			R_humerus			R_elbow_med			R_elbow_lat			R_forearm			R_wrist_radius			R_wrist_ulna			L_humerus			L_elbow_med			L_elbow_lat			L_forearm			L_wrist_radius			L_wrist_ulna			R_HJC			L_HJC			R_HJC_reg			L_HJC_reg			
		X1	Y1	Z1	X2	Y2	Z2	X3	Y3	Z3	X4	Y4	Z4	X5	Y5	Z5	X6	Y6	Z6	X7	Y7	Z7	X8	Y8	Z8	X9	Y9	Z9	X10	Y10	Z10	X11	Y11	Z11	X12	Y12	Z12	X13	Y13	Z13	X14	Y14	Z14	X15	Y15	Z15	X16	Y16	Z16	X17	Y17	Z17	X18	Y18	Z18	X19	Y19	Z19	X20	Y20	Z20	X21	Y21	Z21	X22	Y22	Z22	X23	Y23	Z23	X24	Y24	Z24	X25	Y25	Z25	X26	Y26	Z26	X27	Y27	Z27	X28	Y28	Z28	X29	Y29	Z29	X30	Y30	Z30	X31	Y31	Z31	X32	Y32	Z32	X33	Y33	Z33	X34	Y34	Z34	X35	Y35	Z35	X36	Y36	Z36	X37	Y37	Z37	X38	Y38	Z38	X39	Y39	Z39	X40	Y40	Z40	X41	Y41	Z41	X42	Y42	Z42	X43	Y43	Z43	X44	Y44	Z44	X45	Y45	Z45	X46	Y46	Z46	X47	Y47	Z47	X48	Y48	Z48	X49	Y49	Z49	X50	Y50	Z50	X51	Y51	Z51	

105	1.04000000	-951.96754	774.11221	-411.85716	-971.30646	656.60154	-426.90752	-1186.53519	470.88232	-447.18006	-1246.24369	465.29814	-498.79336	-1124.00820	360.95072	-414.29031	-1083.42314	356.33748	-459.21577	-952.46248	770.38396	-727.63757	-962.81649	657.00071	-686.65055	-1192.42169	468.75380	-726.51286	-1251.25157	462.87308	-679.12787	-1120.83802	356.16432	-740.61151	-1079.93587	354.95839	-684.86971	-1041.58397	569.43870	-438.95983	-1020.38607	686.06531	-377.64971	-1101.45419	612.14888	-401.32394	-989.90010	703.90312	-758.54092	-1065.63817	609.33867	-772.62817	-859.70581	1072.42740	-415.41691	-855.19147	962.54168	-411.02403	-901.09709	936.88512	-369.45625	-963.60680	1066.45933	-373.14661	-955.32869	951.58312	-368.95292	-876.55021	1060.69416	-739.57793	-864.21143	919.91020	-735.38298	-982.35809	1057.29010	-769.88751	-973.79020	915.41417	-758.79864	-825.64046	1213.29478	-451.40142	-980.79513	1318.34134	-518.13246	-826.28928	1213.25970	-693.96297	-983.29431	1320.43900	-634.89423	-843.48619	1740.05467	-562.49074	-785.94214	1728.91129	-442.98183	-777.61231	1741.93660	-681.63233	-724.29779	1666.44360	-539.79252	-721.49485	1664.68945	-582.52566	-700.98039	1701.10414	-381.52700	-569.01256	1536.46283	-343.31785	-555.37298	1603.99677	-305.02205	-435.09329	1635.91239	-344.90645	-340.50353	1649.00172	-382.49326	-327.32341	1635.11996	-349.59303	-675.73834	1709.97685	-747.64806	-542.95976	1557.61391	-792.31296	-537.36978	1621.26544	-830.11511	-436.96824	1647.54944	-811.99495	-307.58633	1637.72579	-786.05458	-302.63605	1630.37404	-817.16347	-935.44351	1178.86621	-476.29828	-932.45965	1173.83137	-665.58559	-916.66262	1173.26589	-484.07982	-920.08798	1176.14072	-644.10835	
106	1.05000000	-940.16896	785.86122	-408.38238	-960.13374	668.38046	-422.45785	-1173.78131	482.54257	-444.17750	-1231.32963	481.10227	-497.15725	-1119.25739	364.87257	-414.08696	-1079.20578	357.56633	-458.84176	-941.64191	783.03301	-731.43435	-951.51767	669.48093	-690.79133	-1180.49388	479.91548	-728.33509	-1238.11290	476.04424	-681.90928	-1116.43369	359.72987	-741.05718	-1076.10330	356.46116	-685.43353	-1029.57850	580.77680	-434.76016	-1010.64676	698.46510	-374.88926	-1090.74426	623.89467	-399.67139	-980.48683	717.32916	-762.49111	-1055.98846	622.30132	-775.75021	-845.87004	1083.60909	-413.98658	-841.89372	973.94365	-408.81936	-887.88525	948.76687	-367.20613	-950.13670	1078.21596	-372.14376	-942.01925	963.46078	-367.00802	-862.77408	1072.70161	-740.29064	-851.31894	931.68387	-737.14419	-968.42900	1070.08588	-771.83134	-960.61240	928.00413	-762.09974	-811.93452	1225.27666	-451.49967	-967.60723	1329.30963	-518.31424	-812.52671	1225.84404	-693.89302	-969.98927	1331.72636	-634.91258	-836.11327	1752.94557	-562.63978	-778.96802	1742.62830	-443.46164	-769.55398	1756.09166	-680.86859	-716.58125	1679.95618	-539.86232	-713.55146	1678.21859	-582.22635	-694.18755	1716.48343	-381.73853	-559.90680	1553.38238	-343.70615	-546.78527	1621.31691	-305.59541	-426.41784	1654.12486	-345.60268	-332.11304	1668.00862	-382.90855	-319.06096	1654.61663	-349.45853	-667.03637	1726.68632	-747.09740	-532.73275	1575.65273	-793.29542	-527.50202	1640.15437	-830.02577	-427.12703	1666.48597	-812.62085	-297.24627	1656.77011	-787.03542	-292.51571	1650.28774	-818.49510	-921.48015	1190.15761	-476.57501	-918.26589	1185.54685	-665.86935	-902.66293	1184.65597	-484.36973	-905.93015	1187.97068	-644.28235	
107	1.06000000	-927.30439	797.15025	-405.24071	-947.77322	679.78558	-418.22688	-1159.39739	493.25314	-441.34450	-1214.91234	497.10388	-494.51644	-1114.17855	369.39047	-414.19526	-1074.30457	359.20236	-458.18492	-929.66156	795.18297	-734.52937	-939.08029	681.81405	-694.98252	-1166.79079	491.01734	-730.62430	-1223.06360	490.41673	-685.05910	-1111.25007	364.41806	-741.79559	-1071.33568	358.55008	-686.27633	-1016.46502	591.75542	-430.62339	-999.57276	710.56938	-372.32590	-1078.70823	635.17978	-398.19703	-970.01297	730.48677	-765.80586	-1045.18469	634.98238	-778.62071	-832.28882	1094.70720	-412.70785	-828.22204	985.08356	-406.78812	-874.38381	959.90429	-365.68125	-936.78417	1089.65971	-371.30360	-928.46870	974.77859	-365.44664	-848.99438	1084.63824	-741.20131	-837.58956	943.58284	-738.99286	-954.50701	1082.38765	-773.74599	-946.73720	940.09885	-765.02725	-798.63830	1237.06286	-451.71101	-954.75623	1339.91994	-518.35135	-799.06075	1238.45412	-693.75574	-957.24284	1342.77297	-634.61826	-828.36987	1765.30013	-562.77167	-771.87062	1755.55111	-443.82390	-761.17182	1769.59861	-680.18989	-708.69422	1692.85443	-539.68811	-705.44421	1691.42587	-581.92054	-687.02928	1730.65126	-381.88443	-551.23157	1568.61288	-343.61744	-538.29422	1636.88327	-306.07477	-417.82591	1670.12634	-345.79092	-323.54826	1684.35418	-383.03021	-310.63693	1671.24325	-349.15051	-657.91667	1742.04343	-746.65961	-522.85650	1591.98393	-794.67732	-517.83262	1657.30105	-829.98929	-417.46592	1683.35558	-813.50580	-287.29241	1673.62875	-788.81604	-282.48697	1667.60582	-819.88455	-907.77312	1201.10462	-476.84558	-904.38283	1197.14981	-666.15184	-888.78884	1195.87145	-484.61553	-892.20397	1199.78910	-644.28296	
108	1.07000000	-913.46532	807.74299	-402.51951	-934.20534	690.66165	-414.05247	-1143.93337	502.95260	-438.84366	-1197.40250	512.62653	-491.65300	-1108.58124	375.05388	-414.12053	-1068.76616	362.03382	-457.26092	-916.73509	806.65016	-737.10398	-925.83033	693.45500	-699.35081	-1151.54284	501.79689	-733.07339	-1206.19552	506.01463	-687.67350	-1105.20277	370.23493	-742.95688	-1065.78585	361.18259	-687.19576	-1002.35616	602.19528	-426.50785	-987.15401	722.14711	-369.87829	-1065.23675	645.78144	-396.41237	-958.35360	742.78195	-768.24171	-1032.96459	647.03893	-781.36714	-818.82454	1105.50870	-411.79943	-814.30734	995.84127	-405.13819	-860.68087	970.44094	-364.67505	-923.54351	1100.50537	-370.74634	-914.84270	985.52758	-364.14790	-835.06773	1096.27396	-742.57449	-823.27085	955.21885	-740.97067	-940.55996	1093.85788	-775.30850	-932.47594	951.56752	-767.42242	-785.74005	1248.40564	-451.95950	-942.30920	1349.98339	-518.29298	-785.95448	1250.82341	-693.66910	-944.95129	1353.28894	-634.13370	-820.46718	1776.92212	-562.78441	-764.65251	1767.49206	-444.23936	-752.67654	1782.22042	-679.29661	-700.68205	1705.09309	-539.26589	-697.21618	1703.83083	-581.77141	-679.50544	1743.59420	-382.10714	-542.90843	1582.02865	-343.18493	-530.01182	1650.59352	-306.28842	-409.50268	1683.80766	-345.44989	-315.02100	1698.01467	-382.56334	-302.03988	1684.88114	-348.94990	-648.56008	1755.69720	-746.04981	-513.39938	1606.36683	-796.43788	-508.42101	1672.64133	-830.14074	-407.97307	1698.08527	-814.42689	-277.38234	1687.82361	-790.70043	-273.31281	1682.28038	-821.42097	-894.35120	1211.49744	-477.14351	-890.82595	1208.37604	-666.46257	-875.22001	1206.67748	-484.87465	-878.85624	1211.22658	-644.30485	
